# xmcd
#
# Track frame offsets:
#	150
#	12577
#	32422
#	43927
#	56515
#	71752
#	81647
#	93040
#	105437
#	118022
#	130742
#	145147
#
# Disc length: 2132 seconds
#
# Revision: 1
# Processed by: cddbd v1.5.2PL0 Copyright (c) Steve Scherf et al.
# Submitted via: audiograbber 1.83.01
#
DISCID=a108520c
DTITLE=Mighty Clouds of Joy - Best Of (Vol 2)
DYEAR=1973
DGENRE=Gospel
TTITLE0=Did You Stop To Pray
TTITLE1=When The Gates Swing Open
TTITLE2=He's Real To Me
TTITLE3=Swing Low, Sweet Chariot
TTITLE4=He's Able
TTITLE5=Nobody Can Turn Me Around
TTITLE6=Call Him Up
TTITLE7=Go Tell It On The Mountain
TTITLE8=Man Can't Get No Satisfaction
TTITLE9=Led Jesus Lead You
TTITLE10=A Brighter Tomorrow
TTITLE11=Stand By Me
EXTD=
EXTT0=
EXTT1=
EXTT2=
EXTT3=
EXTT4=
EXTT5=
EXTT6=
EXTT7=
EXTT8=
EXTT9=
EXTT10=
EXTT11=
PLAYORDER=
